<svg version="1.1" xmlns="http://www.w3.org/2000/svg" xmlns:xlink="http://www.w3.org/1999/xlink" width="70.45334" height="33.175" viewBox="0,0,70.45334,33.175"><g transform="translate(-284.77333,-163.4125)"><g data-paper-data="{&quot;isPaintingLayer&quot;:true}" fill-rule="nonzero" stroke="none" stroke-linecap="butt" stroke-linejoin="miter" stroke-miterlimit="10" stroke-dasharray="" stroke-dashoffset="0" style="mix-blend-mode: normal"><path d="M284.77333,165.6125c0,-1.21502 1.28942,-2.2 2.88,-2.2h5.76c1.44,0 2.16,0.55 2.88,1.1l2.88,2.2c0.72,0.55 1.44,1.1 2.88,1.1h8.64c1.44,0 2.16,-0.55 2.88,-1.1l2.88,-2.2c0.72,-0.55 1.44,-1.1 2.88,-1.1h33.01334c1.59058,0 2.88,0.98498 2.88,2.2v22c0,1.21502 -1.28942,2.2 -2.88,2.2h-33.01334c-1.44,0 -2.16,0.55 -2.88,1.1l-2.88,2.2c-0.72,0.55 -1.44,1.1 -2.88,1.1h-8.64c-1.44,0 -2.16,-0.55 -2.88,-1.1l-2.88,-2.2c-0.72,-0.55 -1.44,-1.1 -2.88,-1.1h-5.76c-1.59058,0 -2.88,-0.98497 -2.88,-2.2z" fill="#558074" stroke-width="0"/><path d="M284.77333,167.9875c0,-1.21503 1.28942,-2.2 2.88,-2.2h5.76c1.44,0 2.16,0.55 2.88,1.1l2.88,2.2c0.72,0.55 1.44,1.1 2.88,1.1h8.64c1.44,0 2.16,-0.55 2.88,-1.1l2.88,-2.2c0.72,-0.55 1.44,-1.1 2.88,-1.1h33.01334c1.59058,0 2.88,0.98497 2.88,2.2v22c0,1.21503 -1.28942,2.2 -2.88,2.2h-33.01334c-1.44,0 -2.16,0.55 -2.88,1.1l-2.88,2.2c-0.72,0.55 -1.44,1.1 -2.88,1.1h-8.64c-1.44,0 -2.16,-0.55 -2.88,-1.1l-2.88,-2.2c-0.72,-0.55 -1.44,-1.1 -2.88,-1.1h-5.76c-1.59058,0 -2.88,-0.98497 -2.88,-2.2z" fill="#abffe7" stroke-width="0"/><text transform="translate(321.20103,184.3) scale(0.26977,0.26977)" font-size="40" xml:space="preserve" fill="#558074" fill-rule="nonzero" stroke="none" stroke-width="1" stroke-linecap="butt" stroke-linejoin="miter" stroke-miterlimit="10" stroke-dasharray="" stroke-dashoffset="0" font-family="&quot;Avenir Next Bold&quot;, Serif" font-weight="normal" text-anchor="start" style="mix-blend-mode: normal"><tspan x="0" dy="0">Start</tspan></text><path d="M300.03451,176.28942l12.37873,5.19135l-12.34306,5.27561z" fill="#558074" stroke-width="0"/></g></g></svg>